%TF.GenerationSoftware,KiCad,Pcbnew,8.0.8*%
%TF.CreationDate,2025-02-20T20:42:50+05:30*%
%TF.ProjectId,AC to DC,41432074-6f20-4444-932e-6b696361645f,rev?*%
%TF.SameCoordinates,Original*%
%TF.FileFunction,Legend,Top*%
%TF.FilePolarity,Positive*%
%FSLAX46Y46*%
G04 Gerber Fmt 4.6, Leading zero omitted, Abs format (unit mm)*
G04 Created by KiCad (PCBNEW 8.0.8) date 2025-02-20 20:42:50*
%MOMM*%
%LPD*%
G01*
G04 APERTURE LIST*
%ADD10C,0.150000*%
%ADD11C,0.120000*%
G04 APERTURE END LIST*
D10*
X183246666Y-52964819D02*
X183246666Y-53679104D01*
X183246666Y-53679104D02*
X183199047Y-53821961D01*
X183199047Y-53821961D02*
X183103809Y-53917200D01*
X183103809Y-53917200D02*
X182960952Y-53964819D01*
X182960952Y-53964819D02*
X182865714Y-53964819D01*
X183675238Y-53060057D02*
X183722857Y-53012438D01*
X183722857Y-53012438D02*
X183818095Y-52964819D01*
X183818095Y-52964819D02*
X184056190Y-52964819D01*
X184056190Y-52964819D02*
X184151428Y-53012438D01*
X184151428Y-53012438D02*
X184199047Y-53060057D01*
X184199047Y-53060057D02*
X184246666Y-53155295D01*
X184246666Y-53155295D02*
X184246666Y-53250533D01*
X184246666Y-53250533D02*
X184199047Y-53393390D01*
X184199047Y-53393390D02*
X183627619Y-53964819D01*
X183627619Y-53964819D02*
X184246666Y-53964819D01*
X166261905Y-63404819D02*
X166261905Y-62404819D01*
X166261905Y-62404819D02*
X166500000Y-62404819D01*
X166500000Y-62404819D02*
X166642857Y-62452438D01*
X166642857Y-62452438D02*
X166738095Y-62547676D01*
X166738095Y-62547676D02*
X166785714Y-62642914D01*
X166785714Y-62642914D02*
X166833333Y-62833390D01*
X166833333Y-62833390D02*
X166833333Y-62976247D01*
X166833333Y-62976247D02*
X166785714Y-63166723D01*
X166785714Y-63166723D02*
X166738095Y-63261961D01*
X166738095Y-63261961D02*
X166642857Y-63357200D01*
X166642857Y-63357200D02*
X166500000Y-63404819D01*
X166500000Y-63404819D02*
X166261905Y-63404819D01*
X167214286Y-62500057D02*
X167261905Y-62452438D01*
X167261905Y-62452438D02*
X167357143Y-62404819D01*
X167357143Y-62404819D02*
X167595238Y-62404819D01*
X167595238Y-62404819D02*
X167690476Y-62452438D01*
X167690476Y-62452438D02*
X167738095Y-62500057D01*
X167738095Y-62500057D02*
X167785714Y-62595295D01*
X167785714Y-62595295D02*
X167785714Y-62690533D01*
X167785714Y-62690533D02*
X167738095Y-62833390D01*
X167738095Y-62833390D02*
X167166667Y-63404819D01*
X167166667Y-63404819D02*
X167785714Y-63404819D01*
X157333333Y-46359580D02*
X157285714Y-46407200D01*
X157285714Y-46407200D02*
X157142857Y-46454819D01*
X157142857Y-46454819D02*
X157047619Y-46454819D01*
X157047619Y-46454819D02*
X156904762Y-46407200D01*
X156904762Y-46407200D02*
X156809524Y-46311961D01*
X156809524Y-46311961D02*
X156761905Y-46216723D01*
X156761905Y-46216723D02*
X156714286Y-46026247D01*
X156714286Y-46026247D02*
X156714286Y-45883390D01*
X156714286Y-45883390D02*
X156761905Y-45692914D01*
X156761905Y-45692914D02*
X156809524Y-45597676D01*
X156809524Y-45597676D02*
X156904762Y-45502438D01*
X156904762Y-45502438D02*
X157047619Y-45454819D01*
X157047619Y-45454819D02*
X157142857Y-45454819D01*
X157142857Y-45454819D02*
X157285714Y-45502438D01*
X157285714Y-45502438D02*
X157333333Y-45550057D01*
X158285714Y-46454819D02*
X157714286Y-46454819D01*
X158000000Y-46454819D02*
X158000000Y-45454819D01*
X158000000Y-45454819D02*
X157904762Y-45597676D01*
X157904762Y-45597676D02*
X157809524Y-45692914D01*
X157809524Y-45692914D02*
X157714286Y-45740533D01*
X140238095Y-52954819D02*
X140809523Y-52954819D01*
X140523809Y-53954819D02*
X140523809Y-52954819D01*
X141666666Y-53954819D02*
X141095238Y-53954819D01*
X141380952Y-53954819D02*
X141380952Y-52954819D01*
X141380952Y-52954819D02*
X141285714Y-53097676D01*
X141285714Y-53097676D02*
X141190476Y-53192914D01*
X141190476Y-53192914D02*
X141095238Y-53240533D01*
X128444819Y-61913333D02*
X129159104Y-61913333D01*
X129159104Y-61913333D02*
X129301961Y-61960952D01*
X129301961Y-61960952D02*
X129397200Y-62056190D01*
X129397200Y-62056190D02*
X129444819Y-62199047D01*
X129444819Y-62199047D02*
X129444819Y-62294285D01*
X129444819Y-60913333D02*
X129444819Y-61484761D01*
X129444819Y-61199047D02*
X128444819Y-61199047D01*
X128444819Y-61199047D02*
X128587676Y-61294285D01*
X128587676Y-61294285D02*
X128682914Y-61389523D01*
X128682914Y-61389523D02*
X128730533Y-61484761D01*
X173100595Y-59429819D02*
X173100595Y-60239342D01*
X173100595Y-60239342D02*
X173148214Y-60334580D01*
X173148214Y-60334580D02*
X173195833Y-60382200D01*
X173195833Y-60382200D02*
X173291071Y-60429819D01*
X173291071Y-60429819D02*
X173481547Y-60429819D01*
X173481547Y-60429819D02*
X173576785Y-60382200D01*
X173576785Y-60382200D02*
X173624404Y-60334580D01*
X173624404Y-60334580D02*
X173672023Y-60239342D01*
X173672023Y-60239342D02*
X173672023Y-59429819D01*
X174672023Y-60429819D02*
X174100595Y-60429819D01*
X174386309Y-60429819D02*
X174386309Y-59429819D01*
X174386309Y-59429819D02*
X174291071Y-59572676D01*
X174291071Y-59572676D02*
X174195833Y-59667914D01*
X174195833Y-59667914D02*
X174100595Y-59715533D01*
D11*
%TO.C,J2*%
X182850000Y-54200000D02*
X182850000Y-66800000D01*
X182850000Y-66800000D02*
X193200000Y-66800000D01*
X193200000Y-59000000D02*
X193700000Y-59300000D01*
X193200000Y-64400000D02*
X193200000Y-59000000D01*
X193200000Y-65850000D02*
X193700000Y-66100000D01*
X193200000Y-66800000D02*
X193200000Y-65850000D01*
X193700000Y-54200000D02*
X182850000Y-54200000D01*
X193700000Y-59300000D02*
X193700000Y-54200000D01*
X193700000Y-64150000D02*
X193200000Y-64400000D01*
X193700000Y-64200000D02*
X193700000Y-64150000D01*
X193700000Y-66100000D02*
X193700000Y-64200000D01*
%TO.C,D2*%
X157937500Y-61840000D02*
X155737500Y-61840000D01*
X157937500Y-61840000D02*
X160137500Y-61840000D01*
X157937500Y-67160000D02*
X155737500Y-67160000D01*
X157937500Y-67160000D02*
X160137500Y-67160000D01*
X162227500Y-66740000D02*
X161897500Y-66500000D01*
X162227500Y-66260000D01*
X162227500Y-66740000D01*
G36*
X162227500Y-66740000D02*
G01*
X161897500Y-66500000D01*
X162227500Y-66260000D01*
X162227500Y-66740000D01*
G37*
%TO.C,C1*%
X160020354Y-46125000D02*
X161020354Y-46125000D01*
X160520354Y-45625000D02*
X160520354Y-46625000D01*
X165500000Y-43920000D02*
X165500000Y-54080000D01*
X165540000Y-43920000D02*
X165540000Y-54080000D01*
X165580000Y-43920000D02*
X165580000Y-54080000D01*
X165620000Y-43921000D02*
X165620000Y-54079000D01*
X165660000Y-43922000D02*
X165660000Y-54078000D01*
X165700000Y-43923000D02*
X165700000Y-54077000D01*
X165740000Y-43925000D02*
X165740000Y-54075000D01*
X165780000Y-43927000D02*
X165780000Y-54073000D01*
X165820000Y-43930000D02*
X165820000Y-54070000D01*
X165860000Y-43932000D02*
X165860000Y-54068000D01*
X165900000Y-43935000D02*
X165900000Y-54065000D01*
X165940000Y-43938000D02*
X165940000Y-54062000D01*
X165980000Y-43942000D02*
X165980000Y-54058000D01*
X166020000Y-43946000D02*
X166020000Y-54054000D01*
X166060000Y-43950000D02*
X166060000Y-54050000D01*
X166100000Y-43955000D02*
X166100000Y-54045000D01*
X166140000Y-43960000D02*
X166140000Y-54040000D01*
X166180000Y-43965000D02*
X166180000Y-54035000D01*
X166221000Y-43970000D02*
X166221000Y-54030000D01*
X166261000Y-43976000D02*
X166261000Y-54024000D01*
X166301000Y-43982000D02*
X166301000Y-54018000D01*
X166341000Y-43989000D02*
X166341000Y-54011000D01*
X166381000Y-43996000D02*
X166381000Y-54004000D01*
X166421000Y-44003000D02*
X166421000Y-53997000D01*
X166461000Y-44010000D02*
X166461000Y-53990000D01*
X166501000Y-44018000D02*
X166501000Y-53982000D01*
X166541000Y-44026000D02*
X166541000Y-53974000D01*
X166581000Y-44035000D02*
X166581000Y-53965000D01*
X166621000Y-44044000D02*
X166621000Y-53956000D01*
X166661000Y-44053000D02*
X166661000Y-53947000D01*
X166701000Y-44062000D02*
X166701000Y-53938000D01*
X166741000Y-44072000D02*
X166741000Y-53928000D01*
X166781000Y-44082000D02*
X166781000Y-47759000D01*
X166781000Y-50241000D02*
X166781000Y-53918000D01*
X166821000Y-44093000D02*
X166821000Y-47759000D01*
X166821000Y-50241000D02*
X166821000Y-53907000D01*
X166861000Y-44103000D02*
X166861000Y-47759000D01*
X166861000Y-50241000D02*
X166861000Y-53897000D01*
X166901000Y-44115000D02*
X166901000Y-47759000D01*
X166901000Y-50241000D02*
X166901000Y-53885000D01*
X166941000Y-44126000D02*
X166941000Y-47759000D01*
X166941000Y-50241000D02*
X166941000Y-53874000D01*
X166981000Y-44138000D02*
X166981000Y-47759000D01*
X166981000Y-50241000D02*
X166981000Y-53862000D01*
X167021000Y-44150000D02*
X167021000Y-47759000D01*
X167021000Y-50241000D02*
X167021000Y-53850000D01*
X167061000Y-44163000D02*
X167061000Y-47759000D01*
X167061000Y-50241000D02*
X167061000Y-53837000D01*
X167101000Y-44176000D02*
X167101000Y-47759000D01*
X167101000Y-50241000D02*
X167101000Y-53824000D01*
X167141000Y-44189000D02*
X167141000Y-47759000D01*
X167141000Y-50241000D02*
X167141000Y-53811000D01*
X167181000Y-44203000D02*
X167181000Y-47759000D01*
X167181000Y-50241000D02*
X167181000Y-53797000D01*
X167221000Y-44217000D02*
X167221000Y-47759000D01*
X167221000Y-50241000D02*
X167221000Y-53783000D01*
X167261000Y-44232000D02*
X167261000Y-47759000D01*
X167261000Y-50241000D02*
X167261000Y-53768000D01*
X167301000Y-44246000D02*
X167301000Y-47759000D01*
X167301000Y-50241000D02*
X167301000Y-53754000D01*
X167341000Y-44262000D02*
X167341000Y-47759000D01*
X167341000Y-50241000D02*
X167341000Y-53738000D01*
X167381000Y-44277000D02*
X167381000Y-47759000D01*
X167381000Y-50241000D02*
X167381000Y-53723000D01*
X167421000Y-44293000D02*
X167421000Y-47759000D01*
X167421000Y-50241000D02*
X167421000Y-53707000D01*
X167461000Y-44310000D02*
X167461000Y-47759000D01*
X167461000Y-52240000D02*
X167461000Y-53690000D01*
X167501000Y-44326000D02*
X167501000Y-47759000D01*
X167501000Y-52240000D02*
X167501000Y-53674000D01*
X167541000Y-44343000D02*
X167541000Y-47759000D01*
X167541000Y-52240000D02*
X167541000Y-53657000D01*
X167581000Y-44361000D02*
X167581000Y-47759000D01*
X167581000Y-52240000D02*
X167581000Y-53639000D01*
X167621000Y-44379000D02*
X167621000Y-47759000D01*
X167621000Y-52240000D02*
X167621000Y-53621000D01*
X167661000Y-44397000D02*
X167661000Y-47759000D01*
X167661000Y-52240000D02*
X167661000Y-53603000D01*
X167701000Y-44416000D02*
X167701000Y-47759000D01*
X167701000Y-52240000D02*
X167701000Y-53584000D01*
X167741000Y-44436000D02*
X167741000Y-47759000D01*
X167741000Y-52240000D02*
X167741000Y-53564000D01*
X167781000Y-44455000D02*
X167781000Y-47759000D01*
X167781000Y-52240000D02*
X167781000Y-53545000D01*
X167821000Y-44475000D02*
X167821000Y-47759000D01*
X167821000Y-52240000D02*
X167821000Y-53525000D01*
X167861000Y-44496000D02*
X167861000Y-47759000D01*
X167861000Y-52240000D02*
X167861000Y-53504000D01*
X167901000Y-44517000D02*
X167901000Y-47759000D01*
X167901000Y-52240000D02*
X167901000Y-53483000D01*
X167941000Y-44538000D02*
X167941000Y-47759000D01*
X167941000Y-52240000D02*
X167941000Y-53462000D01*
X167981000Y-44560000D02*
X167981000Y-47759000D01*
X167981000Y-52240000D02*
X167981000Y-53440000D01*
X168021000Y-44583000D02*
X168021000Y-47759000D01*
X168021000Y-52240000D02*
X168021000Y-53417000D01*
X168061000Y-44605000D02*
X168061000Y-47759000D01*
X168061000Y-52240000D02*
X168061000Y-53395000D01*
X168101000Y-44629000D02*
X168101000Y-47759000D01*
X168101000Y-52240000D02*
X168101000Y-53371000D01*
X168141000Y-44653000D02*
X168141000Y-47759000D01*
X168141000Y-52240000D02*
X168141000Y-53347000D01*
X168181000Y-44677000D02*
X168181000Y-47759000D01*
X168181000Y-52240000D02*
X168181000Y-53323000D01*
X168221000Y-44702000D02*
X168221000Y-47759000D01*
X168221000Y-52240000D02*
X168221000Y-53298000D01*
X168261000Y-44727000D02*
X168261000Y-47759000D01*
X168261000Y-52240000D02*
X168261000Y-53273000D01*
X168301000Y-44753000D02*
X168301000Y-47759000D01*
X168301000Y-52240000D02*
X168301000Y-53247000D01*
X168341000Y-44779000D02*
X168341000Y-47759000D01*
X168341000Y-52240000D02*
X168341000Y-53221000D01*
X168381000Y-44806000D02*
X168381000Y-47759000D01*
X168381000Y-52240000D02*
X168381000Y-53194000D01*
X168421000Y-44834000D02*
X168421000Y-47759000D01*
X168421000Y-52240000D02*
X168421000Y-53166000D01*
X168461000Y-44862000D02*
X168461000Y-47759000D01*
X168461000Y-52240000D02*
X168461000Y-53138000D01*
X168501000Y-44890000D02*
X168501000Y-47759000D01*
X168501000Y-52240000D02*
X168501000Y-53110000D01*
X168541000Y-44920000D02*
X168541000Y-47759000D01*
X168541000Y-52240000D02*
X168541000Y-53080000D01*
X168581000Y-44950000D02*
X168581000Y-47759000D01*
X168581000Y-52240000D02*
X168581000Y-53050000D01*
X168621000Y-44980000D02*
X168621000Y-47759000D01*
X168621000Y-52240000D02*
X168621000Y-53020000D01*
X168661000Y-45011000D02*
X168661000Y-47759000D01*
X168661000Y-52240000D02*
X168661000Y-52989000D01*
X168701000Y-45043000D02*
X168701000Y-47759000D01*
X168701000Y-52240000D02*
X168701000Y-52957000D01*
X168741000Y-45075000D02*
X168741000Y-47759000D01*
X168741000Y-52240000D02*
X168741000Y-52925000D01*
X168781000Y-45108000D02*
X168781000Y-47759000D01*
X168781000Y-52240000D02*
X168781000Y-52892000D01*
X168821000Y-45142000D02*
X168821000Y-47759000D01*
X168821000Y-52240000D02*
X168821000Y-52858000D01*
X168861000Y-45176000D02*
X168861000Y-47759000D01*
X168861000Y-52240000D02*
X168861000Y-52824000D01*
X168901000Y-45211000D02*
X168901000Y-47759000D01*
X168901000Y-52240000D02*
X168901000Y-52789000D01*
X168941000Y-45247000D02*
X168941000Y-47759000D01*
X168941000Y-52240000D02*
X168941000Y-52753000D01*
X168981000Y-45284000D02*
X168981000Y-47759000D01*
X168981000Y-52240000D02*
X168981000Y-52716000D01*
X169021000Y-45321000D02*
X169021000Y-47759000D01*
X169021000Y-52240000D02*
X169021000Y-52679000D01*
X169061000Y-45360000D02*
X169061000Y-47759000D01*
X169061000Y-52240000D02*
X169061000Y-52640000D01*
X169101000Y-45399000D02*
X169101000Y-47759000D01*
X169101000Y-52240000D02*
X169101000Y-52601000D01*
X169141000Y-45439000D02*
X169141000Y-47759000D01*
X169141000Y-52240000D02*
X169141000Y-52561000D01*
X169181000Y-45480000D02*
X169181000Y-47759000D01*
X169181000Y-52240000D02*
X169181000Y-52520000D01*
X169221000Y-45522000D02*
X169221000Y-47759000D01*
X169221000Y-52240000D02*
X169221000Y-52478000D01*
X169261000Y-45564000D02*
X169261000Y-49760000D01*
X169261000Y-52240000D02*
X169261000Y-52436000D01*
X169301000Y-45608000D02*
X169301000Y-49760000D01*
X169301000Y-52240000D02*
X169301000Y-52392000D01*
X169341000Y-45653000D02*
X169341000Y-49760000D01*
X169341000Y-52240000D02*
X169341000Y-52347000D01*
X169381000Y-45699000D02*
X169381000Y-49760000D01*
X169381000Y-52240000D02*
X169381000Y-52301000D01*
X169421000Y-45746000D02*
X169421000Y-49760000D01*
X169421000Y-52240000D02*
X169421000Y-52254000D01*
X169461000Y-45794000D02*
X169461000Y-49760000D01*
X169501000Y-45844000D02*
X169501000Y-49760000D01*
X169541000Y-45894000D02*
X169541000Y-49760000D01*
X169581000Y-45946000D02*
X169581000Y-49760000D01*
X169621000Y-46000000D02*
X169621000Y-49760000D01*
X169661000Y-46055000D02*
X169661000Y-49760000D01*
X169701000Y-46111000D02*
X169701000Y-49760000D01*
X169741000Y-46170000D02*
X169741000Y-49760000D01*
X169781000Y-46230000D02*
X169781000Y-49760000D01*
X169821000Y-46291000D02*
X169821000Y-49760000D01*
X169861000Y-46355000D02*
X169861000Y-49760000D01*
X169901000Y-46421000D02*
X169901000Y-49760000D01*
X169941000Y-46490000D02*
X169941000Y-51510000D01*
X169981000Y-46561000D02*
X169981000Y-51439000D01*
X170021000Y-46635000D02*
X170021000Y-51365000D01*
X170061000Y-46711000D02*
X170061000Y-51289000D01*
X170101000Y-46791000D02*
X170101000Y-51209000D01*
X170141000Y-46875000D02*
X170141000Y-51125000D01*
X170181000Y-46963000D02*
X170181000Y-51037000D01*
X170221000Y-47056000D02*
X170221000Y-50944000D01*
X170261000Y-47154000D02*
X170261000Y-50846000D01*
X170301000Y-47258000D02*
X170301000Y-50742000D01*
X170341000Y-47370000D02*
X170341000Y-50630000D01*
X170381000Y-47490000D02*
X170381000Y-50510000D01*
X170421000Y-47622000D02*
X170421000Y-50378000D01*
X170461000Y-47770000D02*
X170461000Y-50230000D01*
X170501000Y-47938000D02*
X170501000Y-50062000D01*
X170541000Y-48138000D02*
X170541000Y-49862000D01*
X170581000Y-48401000D02*
X170581000Y-49599000D01*
X161551988Y-45740000D02*
G75*
G02*
X160675097Y-47286902I3948012J-3260000D01*
G01*
%TO.C,T1*%
X132560000Y-56960000D02*
X133840000Y-56960000D01*
X132560000Y-58240000D02*
X132560000Y-56960000D01*
X132860000Y-57260000D02*
X152140000Y-57260000D01*
X152140000Y-75040000D01*
X132860000Y-75040000D01*
X132860000Y-57260000D01*
%TO.C,J1*%
X115700000Y-60850000D02*
X115700000Y-71200000D01*
X115700000Y-71200000D02*
X116650000Y-71200000D01*
X116400000Y-71700000D02*
X118300000Y-71700000D01*
X116650000Y-71200000D02*
X116400000Y-71700000D01*
X118100000Y-71200000D02*
X123500000Y-71200000D01*
X118300000Y-71700000D02*
X118350000Y-71700000D01*
X118350000Y-71700000D02*
X118100000Y-71200000D01*
X123200000Y-71700000D02*
X128300000Y-71700000D01*
X123500000Y-71200000D02*
X123200000Y-71700000D01*
X128300000Y-60850000D02*
X115700000Y-60850000D01*
X128300000Y-71700000D02*
X128300000Y-60850000D01*
%TO.C,U1*%
X168742500Y-60975000D02*
X168742500Y-65616000D01*
X168742500Y-60975000D02*
X178982500Y-60975000D01*
X168742500Y-62485000D02*
X178982500Y-62485000D01*
X168742500Y-65616000D02*
X178982500Y-65616000D01*
X172012500Y-60975000D02*
X172012500Y-62485000D01*
X175713500Y-60975000D02*
X175713500Y-62485000D01*
X178982500Y-60975000D02*
X178982500Y-65616000D01*
%TD*%
M02*
