%TF.GenerationSoftware,KiCad,Pcbnew,8.0.8*%
%TF.CreationDate,2025-02-20T20:42:50+05:30*%
%TF.ProjectId,AC to DC,41432074-6f20-4444-932e-6b696361645f,rev?*%
%TF.SameCoordinates,Original*%
%TF.FileFunction,Copper,L2,Bot*%
%TF.FilePolarity,Positive*%
%FSLAX46Y46*%
G04 Gerber Fmt 4.6, Leading zero omitted, Abs format (unit mm)*
G04 Created by KiCad (PCBNEW 8.0.8) date 2025-02-20 20:42:50*
%MOMM*%
%LPD*%
G01*
G04 APERTURE LIST*
%TA.AperFunction,ComponentPad*%
%ADD10R,1.980000X3.960000*%
%TD*%
%TA.AperFunction,ComponentPad*%
%ADD11O,1.980000X3.960000*%
%TD*%
%TA.AperFunction,ComponentPad*%
%ADD12R,2.000000X2.000000*%
%TD*%
%TA.AperFunction,ComponentPad*%
%ADD13C,2.000000*%
%TD*%
%TA.AperFunction,ComponentPad*%
%ADD14R,2.200000X2.200000*%
%TD*%
%TA.AperFunction,ComponentPad*%
%ADD15C,2.200000*%
%TD*%
%TA.AperFunction,ComponentPad*%
%ADD16R,3.960000X1.980000*%
%TD*%
%TA.AperFunction,ComponentPad*%
%ADD17O,3.960000X1.980000*%
%TD*%
%TA.AperFunction,ComponentPad*%
%ADD18R,1.905000X2.000000*%
%TD*%
%TA.AperFunction,ComponentPad*%
%ADD19O,1.905000X2.000000*%
%TD*%
%TA.AperFunction,Conductor*%
%ADD20C,0.200000*%
%TD*%
G04 APERTURE END LIST*
D10*
%TO.P,J2,1,Pin_1*%
%TO.N,GND*%
X185500000Y-60500000D03*
D11*
%TO.P,J2,2,Pin_2*%
%TO.N,Net-(J2-Pin_2)*%
X190500000Y-60500000D03*
%TD*%
D12*
%TO.P,C1,1*%
%TO.N,Net-(D2-+)*%
X162327856Y-47000000D03*
X163000000Y-49000000D03*
D13*
%TO.P,C1,2*%
%TO.N,GND*%
X168000000Y-49000000D03*
X168672144Y-51000000D03*
%TD*%
D14*
%TO.P,T1,1,AA*%
%TO.N,Net-(J1-Pin_1)*%
X137500000Y-59800000D03*
D15*
%TO.P,T1,2,AB*%
%TO.N,Net-(J1-Pin_2)*%
X137500000Y-72500000D03*
%TO.P,T1,3,SA*%
%TO.N,GND*%
X147500000Y-72500000D03*
%TO.P,T1,4,SB*%
%TO.N,Net-(T1-SB)*%
X147500000Y-59800000D03*
%TD*%
D16*
%TO.P,J1,1,Pin_1*%
%TO.N,Net-(J1-Pin_1)*%
X122000000Y-63500000D03*
D17*
%TO.P,J1,2,Pin_2*%
%TO.N,Net-(J1-Pin_2)*%
X122000000Y-68500000D03*
%TD*%
D18*
%TO.P,U1,1,VI*%
%TO.N,Net-(D2-+)*%
X171322500Y-64245000D03*
D19*
%TO.P,U1,2,GND*%
%TO.N,GND*%
X173862500Y-64245000D03*
%TO.P,U1,3,VO*%
%TO.N,Net-(J2-Pin_2)*%
X176402500Y-64245000D03*
%TD*%
D20*
%TO.N,Net-(D2-+)*%
X163000000Y-49000000D02*
X163000000Y-55922500D01*
X162327856Y-48327856D02*
X163000000Y-49000000D01*
X162327856Y-47000000D02*
X162327856Y-48327856D01*
X163000000Y-55922500D02*
X171322500Y-64245000D01*
%TO.N,Net-(J1-Pin_2)*%
X133500000Y-68500000D02*
X137500000Y-72500000D01*
X122000000Y-68500000D02*
X133500000Y-68500000D01*
%TO.N,Net-(J1-Pin_1)*%
X133800000Y-63500000D02*
X137500000Y-59800000D01*
X122000000Y-63500000D02*
X133800000Y-63500000D01*
%TO.N,Net-(J2-Pin_2)*%
X176402500Y-64245000D02*
X185325000Y-64245000D01*
X189070000Y-60500000D02*
X190500000Y-60500000D01*
X185325000Y-64245000D02*
X189070000Y-60500000D01*
%TO.N,GND*%
X168672144Y-51000000D02*
X168672144Y-49672144D01*
X173862500Y-56190356D02*
X168672144Y-51000000D01*
X173862500Y-64245000D02*
X177607500Y-60500000D01*
X173862500Y-64245000D02*
X173862500Y-56190356D01*
X177607500Y-60500000D02*
X185500000Y-60500000D01*
X168672144Y-49672144D02*
X168000000Y-49000000D01*
%TD*%
M02*
